<?xml version="1.0" standalone="no"?>
<!DOCTYPE svg PUBLIC "-//W3C//DTD SVG 20010904//EN"
 "http://www.w3.org/TR/2001/REC-SVG-20010904/DTD/svg10.dtd">
<svg version="1.0" xmlns="http://www.w3.org/2000/svg"
 width="512.000000pt" height="512.000000pt" viewBox="0 0 512.000000 512.000000"
 preserveAspectRatio="xMidYMid meet">
<metadata>
Created by potrace 1.11, written by Peter Selinger 2001-2013
</metadata>
<g transform="translate(0.000000,512.000000) scale(0.100000,-0.100000)"
fill="#000000" stroke="none">
<path d="M1179 4336 c-2 -2 -29 -6 -59 -9 -381 -39 -685 -252 -785 -551 -44
-130 -55 -307 -29 -470 9 -57 60 -187 94 -238 146 -219 384 -327 960 -434 428
-80 608 -238 608 -534 0 -147 -34 -243 -120 -336 -39 -42 -164 -124 -190 -124
-8 0 -18 -4 -23 -9 -48 -42 -416 -76 -556 -51 -24 4 -64 10 -89 13 -138 17
-364 94 -561 192 l-127 63 0 -209 0 -208 56 -21 c182 -68 459 -134 662 -158
83 -9 383 -9 475 0 528 54 841 312 891 733 19 165 -1 353 -52 482 -121 303
-400 473 -939 569 -168 30 -327 70 -436 110 -181 67 -264 189 -261 384 4 252
177 416 492 467 85 14 360 8 450 -10 47 -9 94 -19 105 -21 83 -16 261 -76 374
-125 50 -22 92 -36 92 -33 1 4 2 92 3 195 l1 188 -65 19 c-183 54 -371 95
-535 115 -55 7 -431 16 -436 11z"/>
<path d="M3023 2795 l0 -1495 202 0 202 0 0 595 c0 327 2 597 4 599 2 2 166 6
364 9 198 2 369 7 380 10 11 2 40 8 65 12 176 27 362 113 470 216 135 129 205
283 235 514 7 56 7 242 0 290 -63 431 -303 660 -763 729 -62 10 -240 14 -623
15 l-536 2 0 -1496z m1099 1144 c183 -44 306 -149 367 -312 26 -72 35 -138 34
-252 -2 -225 -99 -395 -273 -478 -120 -57 -198 -67 -531 -67 -159 0 -289 3
-290 8 -1 10 -1 1094 0 1110 1 10 64 12 309 11 261 -1 318 -4 384 -20z"/>
</g>
</svg>
